<?xml version="1.0" standalone="no"?>
<!DOCTYPE svg PUBLIC "-//W3C//DTD SVG 20010904//EN"
 "http://www.w3.org/TR/2001/REC-SVG-20010904/DTD/svg10.dtd">
<svg version="1.0" xmlns="http://www.w3.org/2000/svg"
 width="66.000000pt" height="66.000000pt" viewBox="0 0 66.000000 66.000000"
 preserveAspectRatio="xMidYMid meet">

<g transform="translate(0.000000,66.000000) scale(0.100000,-0.100000)"
fill="#000000" stroke="none">
<path d="M280 560 c-30 -30 -25 -40 20 -40 52 0 103 -21 124 -51 13 -19 16
-49 16 -151 l0 -128 38 0 c67 0 72 14 72 193 0 202 3 197 -145 197 -92 0 -108
-3 -125 -20z"/>
<path d="M127 452 c-14 -16 -17 -43 -17 -175 0 -202 -3 -197 145 -197 149 0
145 -5 145 198 0 200 6 192 -147 192 -94 0 -112 -3 -126 -18z"/>
</g>
</svg>
